<?xml version="1.0" encoding="UTF-8"?><svg id="Layer_1" xmlns="http://www.w3.org/2000/svg" width="237.34" height="101.53" viewBox="0 0 237.34 101.53"><defs><style>.cls-1{fill:#141b4d;}.cls-2{fill:#2e71fe;}</style></defs><path class="cls-2" d="m35.96,0C20.33,0,7.61,12.85,7.61,28.65c0,6.04,1.84,11.82,5.32,16.71,5.32,7.48,13.93,11.95,23.04,11.95v-5.69c-7.27,0-14.15-3.57-18.4-9.55-2.79-3.92-4.26-8.56-4.26-13.41,0-12.66,10.17-22.96,22.66-22.96,11.83,0,21.57,9.23,22.57,20.96h5.71C63.22,11.78,50.93,0,35.96,0Z"/><g><g><g><polygon class="cls-1" points="9.06 101.04 14.65 101.04 14.65 87.87 25.75 87.87 25.75 83.37 14.65 83.37 14.65 73.67 27.65 73.67 27.65 69.19 9.06 69.19 9.06 101.04"/><rect class="cls-1" x="31.46" y="78.38" width="5.55" height="22.66"/><path class="cls-1" d="m60.43,79.06c-1.24-.71-2.78-1.07-4.6-1.07s-3.37.42-4.82,1.26c-1.14.66-2.08,1.51-2.86,2.56v-3.43h-5.61v22.66h5.61v-12.1c0-1.18.24-2.22.71-3.13.48-.9,1.13-1.61,1.97-2.13.84-.52,1.8-.78,2.88-.78,1.24,0,2.21.23,2.91.7s1.2,1.11,1.49,1.93c.29.82.44,1.74.44,2.76v12.74h5.63v-14.34c0-1.76-.32-3.3-.95-4.61-.63-1.31-1.57-2.32-2.82-3.03Z"/><path class="cls-1" d="m90.65,99.25c-.11-.41-.19-.88-.22-1.4-.04-.52-.05-1.05-.05-1.59v-10.33c0-1.76-.49-3.24-1.47-4.42-.98-1.18-2.28-2.06-3.9-2.65-1.62-.58-3.41-.87-5.36-.87-2.09,0-3.96.32-5.61.96-1.65.64-2.95,1.58-3.89,2.81-.95,1.23-1.42,2.73-1.42,4.51h5.55c0-1.31.46-2.27,1.38-2.87.92-.6,2.24-.91,3.96-.91s2.9.27,3.8.81c.9.54,1.34,1.31,1.34,2.3v.04c0,.53-.52.91-1.55,1.14-1.03.23-2.84.48-5.43.74-1.75.16-3.34.51-4.78,1.06-1.44.55-2.58,1.32-3.42,2.33s-1.27,2.28-1.27,3.83c0,1.42.36,2.64,1.09,3.65.73,1.01,1.73,1.78,3.01,2.32,1.28.53,2.77.8,4.46.8,1.42,0,2.74-.18,3.95-.53,1.21-.36,2.25-.86,3.13-1.5.39-.29.73-.61,1.04-.94.06.32.14.62.23.91.14.38.3.72.48,1.01s.32.49.42.59h5.55c-.11-.11-.27-.33-.47-.64-.2-.31-.37-.7-.51-1.15Zm-6.79-4.6c-.61.83-1.42,1.45-2.41,1.85-1,.4-2.08.6-3.24.6-1.44,0-2.51-.23-3.22-.7-.71-.47-1.07-1.17-1.07-2.11s.42-1.66,1.27-2.09c.85-.43,2.11-.72,3.79-.88,1.31-.13,2.6-.3,3.88-.52.7-.12,1.33-.26,1.92-.42v1.07c0,1.31-.31,2.38-.92,3.21Z"/><path class="cls-1" d="m113.31,79.06c-1.24-.71-2.78-1.07-4.6-1.07s-3.37.42-4.82,1.26c-1.14.66-2.08,1.51-2.86,2.56v-3.43h-5.61v22.66h5.61v-12.1c0-1.18.24-2.22.71-3.13.48-.9,1.13-1.61,1.97-2.13.84-.52,1.8-.78,2.88-.78,1.24,0,2.21.23,2.91.7s1.2,1.11,1.49,1.93c.29.82.44,1.74.44,2.76v12.74h5.63v-14.34c0-1.76-.32-3.3-.95-4.61-.63-1.31-1.57-2.32-2.82-3.03Z"/><path class="cls-1" d="m141.46,80.89c-.95-.88-2.11-1.58-3.49-2.1-1.38-.53-2.97-.79-4.76-.79-2.39,0-4.5.47-6.34,1.42-1.84.95-3.27,2.29-4.31,4.04-1.04,1.75-1.56,3.81-1.56,6.19s.52,4.47,1.56,6.25c1.04,1.78,2.47,3.16,4.31,4.14,1.83.98,3.95,1.47,6.34,1.47,1.82,0,3.42-.26,4.81-.79s2.55-1.23,3.49-2.11c.94-.88,1.65-1.85,2.13-2.91s.73-2.12.73-3.17h-5.59c-.06.78-.29,1.5-.7,2.17-.41.66-1.02,1.19-1.82,1.58-.8.39-1.84.59-3.1.59-1.19,0-2.28-.28-3.25-.84s-1.75-1.38-2.32-2.45c-.57-1.07-.85-2.38-.85-3.91s.29-2.84.86-3.88c.58-1.04,1.35-1.82,2.33-2.34.97-.52,2.05-.78,3.23-.78,1.11,0,2.06.18,2.84.53.78.36,1.41.83,1.88,1.42s.76,1.25.87,1.97c.01.09.03.17.04.26.01.09.02.16.02.23h5.57v-.17c0-1.04-.25-2.08-.75-3.13-.5-1.05-1.22-2.01-2.17-2.88Z"/><path class="cls-1" d="m169.89,83.64c-.97-1.77-2.34-3.15-4.13-4.15-1.79-1-3.9-1.49-6.35-1.49s-4.48.49-6.32,1.48-3.27,2.37-4.3,4.13c-1.03,1.76-1.55,3.82-1.55,6.17s.51,4.32,1.53,6.1c1.02,1.78,2.44,3.17,4.26,4.16,1.82,1,3.95,1.49,6.38,1.49,1.79,0,3.39-.22,4.79-.65,1.4-.43,2.59-1.02,3.57-1.75.98-.73,1.75-1.55,2.29-2.45.55-.9.86-1.83.95-2.78h-5.59c-.04.37-.18.74-.42,1.11-.23.37-.58.72-1.05,1.04-.46.32-1.06.57-1.78.76s-1.59.28-2.58.28c-1.47,0-2.71-.29-3.72-.88-1.02-.59-1.79-1.44-2.32-2.56-.3-.63-.5-1.34-.63-2.1h18.32c.03-.16.05-.41.06-.75s.02-.66.02-.96c0-2.35-.48-4.41-1.45-6.18Zm-16.29,2.1c.55-1.08,1.32-1.91,2.33-2.49,1-.58,2.19-.86,3.55-.86s2.52.27,3.41.8c.9.53,1.56,1.23,2.01,2.09.36.71.57,1.46.63,2.25h-12.55c.14-.65.34-1.25.62-1.79Z"/></g><g><path class="cls-1" d="m175.54,78.73h-1.41l.36-.43v4h-.89v-4l.37.43h-1.42v-.69h2.99v.69Z"/><path class="cls-1" d="m179.27,78.04h1.52v4.27h-.85v-3.74h.02s-.83,3.74-.83,3.74h-1.17l-.85-3.74h.02s0,3.74,0,3.74h-.85v-4.27h1.52l.78,3.84h-.08l.78-3.84Z"/></g></g><circle class="cls-1" cx="34.19" cy="71.25" r="3.23"/><g><path class="cls-1" d="m58.68,43.72c-.65-.69-1.38-1.29-2.22-1.77-1.51-.87-3.15-1.31-4.93-1.31s-3.52.45-5.11,1.34c-1.59.9-2.87,2.21-3.84,3.95-.98,1.74-1.46,3.86-1.46,6.36s.48,4.74,1.43,6.51c.95,1.76,2.22,3.1,3.81,4,1.59.9,3.31,1.36,5.17,1.36s3.52-.47,5.01-1.41c.8-.5,1.51-1.11,2.13-1.81v2.75h5.63V30.33h-5.63v13.39Zm-.82,12.67c-.55.87-1.26,1.56-2.14,2.06-.88.5-1.84.75-2.88.75-1.64,0-3.03-.56-4.18-1.69-1.15-1.12-1.73-2.87-1.73-5.23s.58-4.11,1.73-5.22c1.15-1.1,2.55-1.65,4.18-1.65,1,0,1.94.24,2.83.71.89.48,1.61,1.13,2.18,1.97s.84,1.82.84,2.94v2.33c0,1.14-.27,2.14-.82,3.02Z"/><polygon class="cls-1" points="78.34 60.06 73.1 41.02 67.3 41.02 74.57 63.68 82.11 63.68 89.21 41.02 83.41 41.02 78.34 60.06"/><path class="cls-1" d="m112.73,61.89c-.11-.41-.19-.88-.22-1.4-.04-.52-.05-1.05-.05-1.59v-10.33c0-1.76-.49-3.24-1.47-4.42-.98-1.18-2.28-2.06-3.91-2.65-1.62-.58-3.41-.87-5.36-.87-2.09,0-3.96.32-5.61.96-1.65.64-2.95,1.58-3.89,2.81-.95,1.23-1.42,2.73-1.42,4.51h5.55c0-1.31.46-2.27,1.38-2.87.92-.6,2.24-.91,3.96-.91s2.9.27,3.8.81c.9.54,1.34,1.31,1.34,2.3v.04c0,.53-.52.91-1.55,1.14s-2.84.48-5.43.74c-1.75.16-3.34.51-4.78,1.06-1.44.55-2.58,1.32-3.42,2.33-.85,1-1.27,2.28-1.27,3.83,0,1.42.36,2.64,1.09,3.65s1.73,1.78,3.01,2.32,2.77.8,4.46.8c1.42,0,2.74-.18,3.95-.53s2.25-.86,3.13-1.5c.39-.29.73-.61,1.04-.94.06.32.14.62.23.91.14.38.3.72.48,1.01.18.29.32.49.42.59h5.55c-.11-.11-.27-.33-.47-.64-.2-.31-.37-.7-.51-1.15Zm-6.79-4.6c-.61.83-1.42,1.45-2.41,1.85-1,.4-2.08.6-3.24.6-1.44,0-2.51-.23-3.22-.7-.71-.47-1.07-1.17-1.07-2.11s.42-1.66,1.27-2.09c.85-.43,2.11-.72,3.79-.87,1.31-.13,2.6-.3,3.88-.52.7-.12,1.33-.26,1.92-.42v1.07c0,1.31-.31,2.38-.92,3.21Z"/><path class="cls-1" d="m135.39,41.7c-1.25-.71-2.78-1.07-4.6-1.07s-3.37.42-4.82,1.26c-1.14.66-2.08,1.52-2.86,2.56v-3.44h-5.61v22.66h5.61v-12.1c0-1.18.24-2.22.71-3.13s1.13-1.61,1.97-2.13c.84-.52,1.8-.78,2.88-.78,1.24,0,2.21.23,2.91.7.7.47,1.2,1.11,1.49,1.93.29.82.44,1.74.44,2.76v12.74h5.63v-14.34c0-1.76-.32-3.3-.95-4.61s-1.57-2.32-2.82-3.03Z"/><path class="cls-1" d="m152.64,33.55h-5.63v3.61c0,.93-.03,1.65-.1,2.17-.06.52-.2.9-.39,1.14-.2.24-.51.39-.94.46-.43.06-1.01.1-1.75.1h-2.18v4.48h5.36v12.35c0,1.35.21,2.44.64,3.26.43.83.99,1.45,1.69,1.88.7.43,1.46.72,2.3.87.84.16,1.66.23,2.48.23.65,0,1.24-.05,1.75-.15.51-.1.9-.2,1.17-.3v-4.4c-.2.09-.5.17-.91.26-.41.09-.84.13-1.29.13-.95,0-1.56-.32-1.81-.96s-.38-1.49-.38-2.54v-10.65h6.74v-4.48h-6.74v-7.47Z"/><path class="cls-1" d="m184.38,61.89c-.11-.41-.19-.88-.22-1.4-.04-.52-.05-1.05-.05-1.59v-10.33c0-1.76-.49-3.24-1.47-4.42s-2.28-2.06-3.9-2.65c-1.62-.58-3.41-.87-5.36-.87-2.09,0-3.96.32-5.61.96-1.65.64-2.95,1.58-3.89,2.81-.95,1.23-1.42,2.73-1.42,4.51h5.55c0-1.31.46-2.27,1.38-2.87.92-.6,2.24-.91,3.96-.91s2.9.27,3.8.81c.9.54,1.34,1.31,1.34,2.3v.04c0,.53-.52.91-1.55,1.14-1.03.23-2.84.48-5.43.74-1.75.16-3.34.51-4.78,1.06s-2.58,1.32-3.42,2.33c-.85,1-1.27,2.28-1.27,3.83,0,1.42.36,2.64,1.09,3.65.73,1.01,1.73,1.78,3.01,2.32s2.77.8,4.46.8c1.42,0,2.74-.18,3.95-.53,1.21-.36,2.25-.86,3.13-1.5.39-.29.73-.61,1.04-.94.06.32.14.62.23.91.14.38.3.72.48,1.01.18.29.32.49.42.59h5.55c-.11-.11-.27-.33-.47-.64-.2-.31-.37-.7-.51-1.15Zm-6.79-4.6c-.61.83-1.42,1.45-2.41,1.85-1,.4-2.08.6-3.24.6-1.44,0-2.51-.23-3.22-.7-.71-.47-1.07-1.17-1.07-2.11s.42-1.66,1.27-2.09c.85-.43,2.11-.72,3.79-.87,1.31-.13,2.6-.3,3.88-.52.7-.12,1.33-.26,1.92-.42v1.07c0,1.31-.31,2.38-.92,3.21Z"/><path class="cls-1" d="m194.05,57.67c1.46.52,3.12.8,5.03.8,2.16,0,3.95-.38,5.38-1.13,1.42-.75,2.56-1.78,3.41-3.09.85-1.31,1.47-2.79,1.86-4.44l2.05-8.79h-5.04l-.32,2.86c-.09-.12-.18-.24-.28-.36-.78-.85-1.81-1.55-3.1-2.08-1.29-.53-2.75-.8-4.37-.8-2.01,0-3.8.38-5.39,1.15-1.59.77-2.83,1.83-3.73,3.19s-1.36,2.93-1.36,4.7.44,3.27,1.32,4.6c.42.64.94,1.2,1.53,1.7-.19.12-.38.26-.59.43-.53.43-.99.97-1.4,1.61-.41.64-.61,1.34-.61,2.09,0,1.24.49,2.23,1.48,2.99.99.75,2.25,1.21,3.79,1.37l8.6.79c.92.07,1.72.21,2.39.43.67.21,1,.69,1,1.43,0,.5-.25.93-.76,1.3s-1.24.65-2.22.85c-.97.2-2.19.3-3.64.3-1.98,0-3.56-.2-4.75-.59-1.19-.39-1.78-1.03-1.78-1.91,0-.36.04-.66.13-.91.09-.25.17-.43.26-.54l-5.14-.75c-.19.28-.34.64-.47,1.07s-.19.9-.19,1.43c0,1.86,1.02,3.34,3.05,4.43,2.03,1.09,4.94,1.63,8.73,1.63,2.6,0,4.8-.27,6.58-.81,1.79-.54,3.14-1.31,4.07-2.3.92-1,1.39-2.18,1.39-3.54,0-1.22-.28-2.2-.85-2.93-.57-.73-1.36-1.28-2.37-1.65-1.01-.37-2.18-.62-3.52-.75l-7.98-.75c-1.14-.11-1.91-.32-2.3-.61-.4-.29-.6-.66-.6-1.1,0-.47.2-.87.61-1.22.04-.04.08-.07.13-.1Zm.32-10.5c.46-.69,1.1-1.22,1.91-1.59.81-.37,1.74-.55,2.8-.55s2.02.18,2.82.54c.8.36,1.42.89,1.86,1.57.44.68.66,1.5.66,2.45s-.22,1.79-.66,2.46c-.44.68-1.06,1.19-1.86,1.55-.8.36-1.74.53-2.84.53s-2.02-.17-2.83-.52c-.8-.35-1.43-.86-1.88-1.54-.45-.68-.67-1.49-.67-2.44s.23-1.77.69-2.46Z"/><path class="cls-1" d="m235.89,46.28c-.97-1.77-2.34-3.15-4.13-4.15-1.79-1-3.9-1.49-6.35-1.49s-4.48.49-6.32,1.48c-1.83.99-3.27,2.37-4.3,4.13s-1.55,3.82-1.55,6.17.51,4.32,1.53,6.1c1.02,1.78,2.44,3.17,4.26,4.16,1.82,1,3.95,1.49,6.38,1.49,1.79,0,3.39-.22,4.79-.65,1.4-.43,2.59-1.02,3.57-1.75.98-.73,1.75-1.55,2.29-2.45.55-.9.86-1.83.95-2.78h-5.59c-.04.37-.18.74-.42,1.11-.23.37-.58.71-1.05,1.03-.46.32-1.06.57-1.78.76-.73.19-1.59.28-2.58.28-1.47,0-2.71-.29-3.72-.89-1.02-.59-1.79-1.44-2.31-2.56-.3-.63-.5-1.33-.63-2.1h18.32c.03-.16.05-.41.06-.75.01-.34.02-.66.02-.96,0-2.35-.48-4.41-1.45-6.18Zm-16.29,2.1c.55-1.08,1.32-1.91,2.33-2.49,1-.58,2.19-.86,3.55-.86s2.52.27,3.41.8c.9.53,1.56,1.23,2.01,2.09.36.71.57,1.46.63,2.25h-12.55c.14-.65.34-1.25.62-1.79Z"/></g><g><g><path class="cls-1" d="m31.46,62.9h4.56V28.65L1.76,62.9h6.44l23.25-23.25v23.25Z"/><path class="cls-1" d="m36.74,63.63h-6.01v-22.22l-22.22,22.22H0L36.74,26.89v36.74Zm-4.56-1.46h3.1v-31.77L3.52,62.17h4.38l24.28-24.28v24.28Z"/></g><g><path class="cls-1" d="m35.96,54.46c-8.53,0-16.09-4.24-20.72-10.75"/><path class="cls-1" d="m35.96,57.31c-9.11,0-17.72-4.47-23.04-11.95l4.64-3.3c4.25,5.98,11.13,9.55,18.4,9.55v5.69Z"/></g></g></g></svg>